<svg xmlns="http://www.w3.org/2000/svg" width="31.5" height="36" viewBox="0 0 31.5 36">
  <path id="Icon_awesome-address-book" data-name="Icon awesome-address-book" d="M30.656,11.25a.846.846,0,0,0,.844-.844V7.594a.846.846,0,0,0-.844-.844H29.25V3.375A3.376,3.376,0,0,0,25.875,0H3.375A3.376,3.376,0,0,0,0,3.375v29.25A3.376,3.376,0,0,0,3.375,36h22.5a3.376,3.376,0,0,0,3.375-3.375V29.25h1.406a.846.846,0,0,0,.844-.844V25.594a.846.846,0,0,0-.844-.844H29.25v-4.5h1.406a.846.846,0,0,0,.844-.844V16.594a.846.846,0,0,0-.844-.844H29.25v-4.5ZM14.625,9a4.5,4.5,0,1,1-4.5,4.5A4.5,4.5,0,0,1,14.625,9ZM22.5,25.65A1.474,1.474,0,0,1,20.925,27H8.325A1.474,1.474,0,0,1,6.75,25.65V24.3c0-2.236,2.116-4.05,4.725-4.05h.352a7.242,7.242,0,0,0,5.6,0h.352c2.609,0,4.725,1.814,4.725,4.05Z" fill="#fff"/>
</svg>
