<svg xmlns="http://www.w3.org/2000/svg" width="23" height="23" viewBox="0 0 23 23">
  <path id="Icon_awesome-external-link-square-alt" data-name="Icon awesome-external-link-square-alt" d="M23,4.714V22.786a2.464,2.464,0,0,1-2.464,2.464H2.464A2.464,2.464,0,0,1,0,22.786V4.714A2.464,2.464,0,0,1,2.464,2.25H20.536A2.464,2.464,0,0,1,23,4.714Zm-4.518.821H12.734a1.233,1.233,0,0,0-.871,2.1L13.5,9.281,3.466,19.32a.616.616,0,0,0,0,.871l1.593,1.593a.616.616,0,0,0,.871,0L15.969,11.746l1.642,1.642a1.233,1.233,0,0,0,2.1-.871V6.768A1.232,1.232,0,0,0,18.482,5.536Z" transform="translate(0 -2.25)" fill="#fff"/>
</svg>
